<mxfile host="app.diagrams.net" modified="2021-08-19T09:57:19.968Z" agent="5.0 (Windows NT 10.0; Win64; x64) AppleWebKit/537.36 (KHTML, like Gecko) Chrome/92.0.4515.131 Safari/537.36" etag="ETTUxwtor08B1RIdPVvI" version="14.9.2" type="github" pages="2">
  <diagram id="OGrvIuzpXwlmTKYWj4ko" name="Guest user flow">
    <mxGraphModel dx="12700" dy="7450" grid="1" gridSize="10" guides="1" tooltips="1" connect="1" arrows="1" fold="1" page="1" pageScale="1" pageWidth="850" pageHeight="1100" math="0" shadow="0">
      <root>
        <mxCell id="0" />
        <mxCell id="1" parent="0" />
        <mxCell id="kdUmxQenp2QyYtP7Kdyd-5" style="edgeStyle=orthogonalEdgeStyle;rounded=0;orthogonalLoop=1;jettySize=auto;html=1;entryX=0.5;entryY=0;entryDx=0;entryDy=0;" edge="1" parent="1" source="kdUmxQenp2QyYtP7Kdyd-1" target="kdUmxQenp2QyYtP7Kdyd-99">
          <mxGeometry relative="1" as="geometry">
            <mxPoint x="425" y="10" as="targetPoint" />
          </mxGeometry>
        </mxCell>
        <mxCell id="kdUmxQenp2QyYtP7Kdyd-1" value="Grade page" style="rounded=0;whiteSpace=wrap;html=1;" vertex="1" parent="1">
          <mxGeometry x="365" y="-110" width="120" height="60" as="geometry" />
        </mxCell>
        <mxCell id="kdUmxQenp2QyYtP7Kdyd-3" value="&lt;font style=&quot;font-size: 20px&quot;&gt;&lt;b&gt;&lt;u&gt;GUEST USER FLOW&lt;/u&gt;&lt;/b&gt;&lt;/font&gt;" style="text;html=1;align=center;verticalAlign=middle;resizable=0;points=[];autosize=1;strokeColor=none;" vertex="1" parent="1">
          <mxGeometry x="320" y="-220" width="210" height="20" as="geometry" />
        </mxCell>
        <mxCell id="kdUmxQenp2QyYtP7Kdyd-8" value="" style="edgeStyle=orthogonalEdgeStyle;rounded=0;orthogonalLoop=1;jettySize=auto;html=1;" edge="1" parent="1" source="kdUmxQenp2QyYtP7Kdyd-4" target="kdUmxQenp2QyYtP7Kdyd-7">
          <mxGeometry relative="1" as="geometry">
            <Array as="points">
              <mxPoint x="425" y="280" />
              <mxPoint x="90" y="280" />
            </Array>
          </mxGeometry>
        </mxCell>
        <mxCell id="kdUmxQenp2QyYtP7Kdyd-10" style="edgeStyle=orthogonalEdgeStyle;rounded=0;orthogonalLoop=1;jettySize=auto;html=1;entryX=0.54;entryY=-0.017;entryDx=0;entryDy=0;entryPerimeter=0;" edge="1" parent="1" source="kdUmxQenp2QyYtP7Kdyd-4" target="kdUmxQenp2QyYtP7Kdyd-23">
          <mxGeometry relative="1" as="geometry">
            <mxPoint x="780" y="320" as="targetPoint" />
            <Array as="points">
              <mxPoint x="425" y="280" />
              <mxPoint x="824" y="280" />
            </Array>
          </mxGeometry>
        </mxCell>
        <mxCell id="kdUmxQenp2QyYtP7Kdyd-4" value="Test Catalogue Guest" style="rounded=0;whiteSpace=wrap;html=1;" vertex="1" parent="1">
          <mxGeometry x="365" y="150" width="120" height="60" as="geometry" />
        </mxCell>
        <mxCell id="kdUmxQenp2QyYtP7Kdyd-27" value="" style="edgeStyle=orthogonalEdgeStyle;rounded=0;orthogonalLoop=1;jettySize=auto;html=1;" edge="1" parent="1" source="kdUmxQenp2QyYtP7Kdyd-7" target="kdUmxQenp2QyYtP7Kdyd-26">
          <mxGeometry relative="1" as="geometry">
            <Array as="points">
              <mxPoint x="90" y="370" />
              <mxPoint x="-270" y="370" />
            </Array>
          </mxGeometry>
        </mxCell>
        <mxCell id="kdUmxQenp2QyYtP7Kdyd-7" value="Hamburger menu" style="rounded=0;whiteSpace=wrap;html=1;strokeColor=#666666;fillColor=#f5f5f5;fontColor=#333333;" vertex="1" parent="1">
          <mxGeometry x="30" y="310" width="120" height="40" as="geometry" />
        </mxCell>
        <mxCell id="kdUmxQenp2QyYtP7Kdyd-12" style="edgeStyle=orthogonalEdgeStyle;rounded=0;orthogonalLoop=1;jettySize=auto;html=1;" edge="1" parent="1">
          <mxGeometry relative="1" as="geometry">
            <mxPoint x="970" y="310" as="targetPoint" />
            <mxPoint x="650" y="280" as="sourcePoint" />
            <Array as="points">
              <mxPoint x="970" y="280" />
            </Array>
          </mxGeometry>
        </mxCell>
        <mxCell id="kdUmxQenp2QyYtP7Kdyd-15" style="edgeStyle=orthogonalEdgeStyle;rounded=0;orthogonalLoop=1;jettySize=auto;html=1;" edge="1" parent="1">
          <mxGeometry relative="1" as="geometry">
            <mxPoint x="230" y="310" as="targetPoint" />
            <mxPoint x="230" y="280" as="sourcePoint" />
            <Array as="points">
              <mxPoint x="230" y="280" />
              <mxPoint x="230" y="290" />
            </Array>
          </mxGeometry>
        </mxCell>
        <mxCell id="kdUmxQenp2QyYtP7Kdyd-17" value="Search Page" style="rounded=0;whiteSpace=wrap;html=1;" vertex="1" parent="1">
          <mxGeometry x="180" y="310" width="90" height="40" as="geometry" />
        </mxCell>
        <mxCell id="kdUmxQenp2QyYtP7Kdyd-91" style="edgeStyle=orthogonalEdgeStyle;rounded=0;orthogonalLoop=1;jettySize=auto;html=1;" edge="1" parent="1" source="kdUmxQenp2QyYtP7Kdyd-18">
          <mxGeometry relative="1" as="geometry">
            <mxPoint x="370" y="490" as="targetPoint" />
            <Array as="points">
              <mxPoint x="370" y="490" />
              <mxPoint x="370" y="490" />
            </Array>
          </mxGeometry>
        </mxCell>
        <mxCell id="kdUmxQenp2QyYtP7Kdyd-18" value="Cart page (Empty)" style="rounded=0;whiteSpace=wrap;html=1;" vertex="1" parent="1">
          <mxGeometry x="310" y="310" width="100" height="40" as="geometry" />
        </mxCell>
        <mxCell id="kdUmxQenp2QyYtP7Kdyd-69" value="" style="edgeStyle=orthogonalEdgeStyle;rounded=0;orthogonalLoop=1;jettySize=auto;html=1;exitX=0.5;exitY=1;exitDx=0;exitDy=0;" edge="1" parent="1" source="kdUmxQenp2QyYtP7Kdyd-19">
          <mxGeometry relative="1" as="geometry">
            <mxPoint x="970" y="345" as="sourcePoint" />
            <mxPoint x="870" y="495" as="targetPoint" />
            <Array as="points">
              <mxPoint x="970" y="450" />
              <mxPoint x="870" y="450" />
              <mxPoint x="870" y="495" />
            </Array>
          </mxGeometry>
        </mxCell>
        <mxCell id="kdUmxQenp2QyYtP7Kdyd-19" value="Subject Catalogue" style="rounded=0;whiteSpace=wrap;html=1;strokeColor=#6c8ebf;fillColor=#FFFFFF;" vertex="1" parent="1">
          <mxGeometry x="920" y="310" width="100" height="40" as="geometry" />
        </mxCell>
        <mxCell id="kdUmxQenp2QyYtP7Kdyd-20" style="edgeStyle=orthogonalEdgeStyle;rounded=0;orthogonalLoop=1;jettySize=auto;html=1;" edge="1" parent="1">
          <mxGeometry relative="1" as="geometry">
            <mxPoint x="360" y="310.0000000000001" as="targetPoint" />
            <mxPoint x="360" y="280" as="sourcePoint" />
            <Array as="points">
              <mxPoint x="360" y="290" />
              <mxPoint x="360" y="290" />
            </Array>
          </mxGeometry>
        </mxCell>
        <mxCell id="kdUmxQenp2QyYtP7Kdyd-21" style="edgeStyle=orthogonalEdgeStyle;rounded=0;orthogonalLoop=1;jettySize=auto;html=1;" edge="1" parent="1">
          <mxGeometry relative="1" as="geometry">
            <mxPoint x="506.0500000000001" y="310.0000000000001" as="targetPoint" />
            <mxPoint x="506.0500000000001" y="280" as="sourcePoint" />
            <Array as="points">
              <mxPoint x="506.05" y="300" />
              <mxPoint x="506.05" y="300" />
            </Array>
          </mxGeometry>
        </mxCell>
        <mxCell id="kdUmxQenp2QyYtP7Kdyd-23" value="My Tests (Empty)" style="rounded=0;whiteSpace=wrap;html=1;" vertex="1" parent="1">
          <mxGeometry x="770" y="310" width="100" height="40" as="geometry" />
        </mxCell>
        <mxCell id="kdUmxQenp2QyYtP7Kdyd-64" style="edgeStyle=orthogonalEdgeStyle;rounded=0;orthogonalLoop=1;jettySize=auto;html=1;" edge="1" parent="1" source="kdUmxQenp2QyYtP7Kdyd-24">
          <mxGeometry relative="1" as="geometry">
            <mxPoint x="520" y="500" as="targetPoint" />
            <Array as="points">
              <mxPoint x="520" y="450" />
              <mxPoint x="520" y="450" />
            </Array>
          </mxGeometry>
        </mxCell>
        <mxCell id="kdUmxQenp2QyYtP7Kdyd-24" value="Test Details (paid or free)" style="rounded=0;whiteSpace=wrap;html=1;strokeColor=#82b366;fillColor=#FFFFFF;" vertex="1" parent="1">
          <mxGeometry x="450" y="310" width="107.5" height="40" as="geometry" />
        </mxCell>
        <mxCell id="kdUmxQenp2QyYtP7Kdyd-26" value="My Profile (Log in)" style="rounded=0;whiteSpace=wrap;html=1;fillColor=#f5f5f5;strokeColor=#666666;fontColor=#333333;" vertex="1" parent="1">
          <mxGeometry x="-320" y="400" width="120" height="40" as="geometry" />
        </mxCell>
        <mxCell id="kdUmxQenp2QyYtP7Kdyd-28" value="" style="edgeStyle=orthogonalEdgeStyle;rounded=0;orthogonalLoop=1;jettySize=auto;html=1;entryX=0.492;entryY=0.018;entryDx=0;entryDy=0;entryPerimeter=0;exitX=0.5;exitY=1;exitDx=0;exitDy=0;exitPerimeter=0;" edge="1" parent="1" source="kdUmxQenp2QyYtP7Kdyd-7" target="kdUmxQenp2QyYtP7Kdyd-39">
          <mxGeometry relative="1" as="geometry">
            <mxPoint x="459.97" y="360" as="sourcePoint" />
            <mxPoint x="839.97" y="420" as="targetPoint" />
            <Array as="points">
              <mxPoint x="90" y="370" />
              <mxPoint x="849" y="370" />
            </Array>
          </mxGeometry>
        </mxCell>
        <mxCell id="kdUmxQenp2QyYtP7Kdyd-29" style="edgeStyle=orthogonalEdgeStyle;rounded=0;orthogonalLoop=1;jettySize=auto;html=1;" edge="1" parent="1">
          <mxGeometry relative="1" as="geometry">
            <mxPoint x="-120.34" y="400" as="targetPoint" />
            <mxPoint x="-120.34" y="370" as="sourcePoint" />
            <Array as="points">
              <mxPoint x="-120.34" y="370" />
              <mxPoint x="-120.34" y="380" />
            </Array>
          </mxGeometry>
        </mxCell>
        <mxCell id="kdUmxQenp2QyYtP7Kdyd-31" value="My Wishlist (Empty)" style="rounded=0;whiteSpace=wrap;html=1;fillColor=#f5f5f5;strokeColor=#666666;fontColor=#333333;" vertex="1" parent="1">
          <mxGeometry x="-180" y="400" width="120" height="40" as="geometry" />
        </mxCell>
        <mxCell id="kdUmxQenp2QyYtP7Kdyd-32" style="edgeStyle=orthogonalEdgeStyle;rounded=0;orthogonalLoop=1;jettySize=auto;html=1;" edge="1" parent="1">
          <mxGeometry relative="1" as="geometry">
            <mxPoint x="20" y="400" as="targetPoint" />
            <mxPoint x="20" y="370" as="sourcePoint" />
            <Array as="points">
              <mxPoint x="20" y="370" />
              <mxPoint x="20" y="380" />
            </Array>
          </mxGeometry>
        </mxCell>
        <mxCell id="kdUmxQenp2QyYtP7Kdyd-33" value="My Achievements (Empty)" style="rounded=0;whiteSpace=wrap;html=1;fillColor=#f5f5f5;strokeColor=#666666;fontColor=#333333;" vertex="1" parent="1">
          <mxGeometry x="100" y="400" width="120" height="40" as="geometry" />
        </mxCell>
        <mxCell id="kdUmxQenp2QyYtP7Kdyd-34" value="Saved Payment Preferences (Log in)" style="rounded=0;whiteSpace=wrap;html=1;fillColor=#f5f5f5;strokeColor=#666666;fontColor=#333333;" vertex="1" parent="1">
          <mxGeometry x="245" y="400" width="120" height="40" as="geometry" />
        </mxCell>
        <mxCell id="kdUmxQenp2QyYtP7Kdyd-35" value="My Downloads (Log in)" style="rounded=0;whiteSpace=wrap;html=1;fillColor=#f5f5f5;strokeColor=#666666;fontColor=#333333;" vertex="1" parent="1">
          <mxGeometry x="390" y="400" width="120" height="40" as="geometry" />
        </mxCell>
        <mxCell id="kdUmxQenp2QyYtP7Kdyd-37" value="My Purchases (Log in)" style="rounded=0;whiteSpace=wrap;html=1;fillColor=#f5f5f5;strokeColor=#666666;fontColor=#333333;" vertex="1" parent="1">
          <mxGeometry x="-40" y="400" width="120" height="40" as="geometry" />
        </mxCell>
        <mxCell id="kdUmxQenp2QyYtP7Kdyd-38" value="Log In" style="rounded=0;whiteSpace=wrap;html=1;fillColor=#f5f5f5;strokeColor=#666666;fontColor=#333333;" vertex="1" parent="1">
          <mxGeometry x="670" y="400" width="90" height="40" as="geometry" />
        </mxCell>
        <mxCell id="kdUmxQenp2QyYtP7Kdyd-39" value="Grade Change Dropdown" style="rounded=0;whiteSpace=wrap;html=1;fillColor=#f5f5f5;strokeColor=#666666;fontColor=#333333;" vertex="1" parent="1">
          <mxGeometry x="790" y="400" width="120" height="40" as="geometry" />
        </mxCell>
        <mxCell id="kdUmxQenp2QyYtP7Kdyd-41" style="edgeStyle=orthogonalEdgeStyle;rounded=0;orthogonalLoop=1;jettySize=auto;html=1;" edge="1" parent="1">
          <mxGeometry relative="1" as="geometry">
            <mxPoint x="319.76" y="400" as="targetPoint" />
            <mxPoint x="319.76" y="370" as="sourcePoint" />
            <Array as="points">
              <mxPoint x="319.76" y="370" />
              <mxPoint x="319.76" y="380" />
            </Array>
          </mxGeometry>
        </mxCell>
        <mxCell id="kdUmxQenp2QyYtP7Kdyd-42" style="edgeStyle=orthogonalEdgeStyle;rounded=0;orthogonalLoop=1;jettySize=auto;html=1;" edge="1" parent="1">
          <mxGeometry relative="1" as="geometry">
            <mxPoint x="150" y="400" as="targetPoint" />
            <mxPoint x="150" y="370" as="sourcePoint" />
            <Array as="points">
              <mxPoint x="150" y="370" />
              <mxPoint x="150" y="380" />
            </Array>
          </mxGeometry>
        </mxCell>
        <mxCell id="kdUmxQenp2QyYtP7Kdyd-43" style="edgeStyle=orthogonalEdgeStyle;rounded=0;orthogonalLoop=1;jettySize=auto;html=1;" edge="1" parent="1">
          <mxGeometry relative="1" as="geometry">
            <mxPoint x="449.76" y="400" as="targetPoint" />
            <mxPoint x="449.76" y="370" as="sourcePoint" />
            <Array as="points">
              <mxPoint x="449.76" y="370" />
              <mxPoint x="449.76" y="380" />
            </Array>
          </mxGeometry>
        </mxCell>
        <mxCell id="kdUmxQenp2QyYtP7Kdyd-44" style="edgeStyle=orthogonalEdgeStyle;rounded=0;orthogonalLoop=1;jettySize=auto;html=1;" edge="1" parent="1">
          <mxGeometry relative="1" as="geometry">
            <mxPoint x="584.7600000000002" y="400" as="targetPoint" />
            <mxPoint x="584.7600000000002" y="370" as="sourcePoint" />
            <Array as="points">
              <mxPoint x="584.76" y="370" />
              <mxPoint x="584.76" y="380" />
            </Array>
          </mxGeometry>
        </mxCell>
        <mxCell id="kdUmxQenp2QyYtP7Kdyd-45" style="edgeStyle=orthogonalEdgeStyle;rounded=0;orthogonalLoop=1;jettySize=auto;html=1;" edge="1" parent="1">
          <mxGeometry relative="1" as="geometry">
            <mxPoint x="714.7100000000002" y="400" as="targetPoint" />
            <mxPoint x="714.7100000000002" y="370" as="sourcePoint" />
            <Array as="points">
              <mxPoint x="714.7099999999999" y="370" />
              <mxPoint x="714.7099999999999" y="380" />
            </Array>
          </mxGeometry>
        </mxCell>
        <mxCell id="kdUmxQenp2QyYtP7Kdyd-48" style="edgeStyle=orthogonalEdgeStyle;rounded=0;orthogonalLoop=1;jettySize=auto;html=1;" edge="1" parent="1">
          <mxGeometry relative="1" as="geometry">
            <mxPoint x="670.0000000000002" y="310.0000000000001" as="targetPoint" />
            <mxPoint x="670.0000000000002" y="280" as="sourcePoint" />
            <Array as="points">
              <mxPoint x="669.95" y="290" />
              <mxPoint x="669.95" y="290" />
            </Array>
          </mxGeometry>
        </mxCell>
        <mxCell id="kdUmxQenp2QyYtP7Kdyd-49" value="Wishlist a test (Log in)" style="rounded=0;whiteSpace=wrap;html=1;" vertex="1" parent="1">
          <mxGeometry x="620" y="310" width="107.5" height="40" as="geometry" />
        </mxCell>
        <mxCell id="kdUmxQenp2QyYtP7Kdyd-50" value="1" style="text;html=1;align=center;verticalAlign=middle;resizable=0;points=[];autosize=1;strokeColor=#b85450;fillColor=#f8cecc;" vertex="1" parent="1">
          <mxGeometry x="370" y="-130" width="20" height="20" as="geometry" />
        </mxCell>
        <mxCell id="kdUmxQenp2QyYtP7Kdyd-51" value="2" style="text;html=1;align=center;verticalAlign=middle;resizable=0;points=[];autosize=1;strokeColor=#b85450;fillColor=#f8cecc;" vertex="1" parent="1">
          <mxGeometry x="370" width="20" height="20" as="geometry" />
        </mxCell>
        <mxCell id="kdUmxQenp2QyYtP7Kdyd-52" value="3" style="text;html=1;align=center;verticalAlign=middle;resizable=0;points=[];autosize=1;strokeColor=#b85450;fillColor=#f8cecc;" vertex="1" parent="1">
          <mxGeometry x="380" y="130" width="20" height="20" as="geometry" />
        </mxCell>
        <mxCell id="kdUmxQenp2QyYtP7Kdyd-53" value="4" style="text;html=1;align=center;verticalAlign=middle;resizable=0;points=[];autosize=1;strokeColor=#b85450;fillColor=#f8cecc;" vertex="1" parent="1">
          <mxGeometry x="50" y="290" width="20" height="20" as="geometry" />
        </mxCell>
        <mxCell id="kdUmxQenp2QyYtP7Kdyd-54" value="5" style="text;html=1;align=center;verticalAlign=middle;resizable=0;points=[];autosize=1;strokeColor=#b85450;fillColor=#f8cecc;" vertex="1" parent="1">
          <mxGeometry x="-307" y="380" width="20" height="20" as="geometry" />
        </mxCell>
        <mxCell id="kdUmxQenp2QyYtP7Kdyd-55" value="6" style="text;html=1;align=center;verticalAlign=middle;resizable=0;points=[];autosize=1;strokeColor=#b85450;fillColor=#f8cecc;" vertex="1" parent="1">
          <mxGeometry x="-150" y="380" width="20" height="20" as="geometry" />
        </mxCell>
        <mxCell id="kdUmxQenp2QyYtP7Kdyd-56" value="7" style="text;html=1;align=center;verticalAlign=middle;resizable=0;points=[];autosize=1;strokeColor=#b85450;fillColor=#f8cecc;" vertex="1" parent="1">
          <mxGeometry x="-10" y="380" width="20" height="20" as="geometry" />
        </mxCell>
        <mxCell id="kdUmxQenp2QyYtP7Kdyd-57" value="8" style="text;html=1;align=center;verticalAlign=middle;resizable=0;points=[];autosize=1;strokeColor=#b85450;fillColor=#f8cecc;" vertex="1" parent="1">
          <mxGeometry x="110" y="380" width="20" height="20" as="geometry" />
        </mxCell>
        <mxCell id="kdUmxQenp2QyYtP7Kdyd-58" value="9" style="text;html=1;align=center;verticalAlign=middle;resizable=0;points=[];autosize=1;strokeColor=#b85450;fillColor=#f8cecc;" vertex="1" parent="1">
          <mxGeometry x="270" y="380" width="20" height="20" as="geometry" />
        </mxCell>
        <mxCell id="kdUmxQenp2QyYtP7Kdyd-59" value="10" style="text;html=1;align=center;verticalAlign=middle;resizable=0;points=[];autosize=1;strokeColor=#b85450;fillColor=#f8cecc;" vertex="1" parent="1">
          <mxGeometry x="405" y="380" width="30" height="20" as="geometry" />
        </mxCell>
        <mxCell id="kdUmxQenp2QyYtP7Kdyd-60" value="11" style="text;html=1;align=center;verticalAlign=middle;resizable=0;points=[];autosize=1;strokeColor=#b85450;fillColor=#f8cecc;" vertex="1" parent="1">
          <mxGeometry x="540" y="380" width="30" height="20" as="geometry" />
        </mxCell>
        <mxCell id="kdUmxQenp2QyYtP7Kdyd-61" value="12" style="text;html=1;align=center;verticalAlign=middle;resizable=0;points=[];autosize=1;strokeColor=#b85450;fillColor=#f8cecc;" vertex="1" parent="1">
          <mxGeometry x="680" y="380" width="30" height="20" as="geometry" />
        </mxCell>
        <mxCell id="kdUmxQenp2QyYtP7Kdyd-62" value="13" style="text;html=1;align=center;verticalAlign=middle;resizable=0;points=[];autosize=1;strokeColor=#b85450;fillColor=#f8cecc;" vertex="1" parent="1">
          <mxGeometry x="800" y="380" width="30" height="20" as="geometry" />
        </mxCell>
        <mxCell id="kdUmxQenp2QyYtP7Kdyd-89" value="" style="edgeStyle=orthogonalEdgeStyle;rounded=0;orthogonalLoop=1;jettySize=auto;html=1;" edge="1" parent="1" source="kdUmxQenp2QyYtP7Kdyd-66" target="kdUmxQenp2QyYtP7Kdyd-88">
          <mxGeometry relative="1" as="geometry" />
        </mxCell>
        <mxCell id="uFjv52dQ62Q8SC3ocIX9-1" value="" style="edgeStyle=orthogonalEdgeStyle;rounded=0;orthogonalLoop=1;jettySize=auto;html=1;shadow=0;" edge="1" parent="1" source="kdUmxQenp2QyYtP7Kdyd-66">
          <mxGeometry relative="1" as="geometry">
            <mxPoint x="360" y="620" as="targetPoint" />
            <Array as="points">
              <mxPoint x="516" y="580" />
              <mxPoint x="360" y="580" />
            </Array>
          </mxGeometry>
        </mxCell>
        <mxCell id="uFjv52dQ62Q8SC3ocIX9-4" value="" style="edgeStyle=orthogonalEdgeStyle;rounded=0;orthogonalLoop=1;jettySize=auto;html=1;shadow=0;" edge="1" parent="1" source="kdUmxQenp2QyYtP7Kdyd-66" target="uFjv52dQ62Q8SC3ocIX9-3">
          <mxGeometry relative="1" as="geometry">
            <Array as="points">
              <mxPoint x="516" y="580" />
              <mxPoint x="695" y="580" />
            </Array>
          </mxGeometry>
        </mxCell>
        <mxCell id="kdUmxQenp2QyYtP7Kdyd-66" value="Free Test Guest (Linear Equations)" style="rounded=0;whiteSpace=wrap;html=1;strokeColor=#82b366;fillColor=#FFFFFF;" vertex="1" parent="1">
          <mxGeometry x="462.5" y="500" width="107.5" height="50" as="geometry" />
        </mxCell>
        <mxCell id="kdUmxQenp2QyYtP7Kdyd-68" value="Filter" style="rounded=0;whiteSpace=wrap;html=1;strokeColor=#6c8ebf;fillColor=#FFFFFF;" vertex="1" parent="1">
          <mxGeometry x="800" y="495" width="130" height="35" as="geometry" />
        </mxCell>
        <mxCell id="kdUmxQenp2QyYtP7Kdyd-76" style="edgeStyle=orthogonalEdgeStyle;rounded=0;orthogonalLoop=1;jettySize=auto;html=1;entryX=0.459;entryY=-0.005;entryDx=0;entryDy=0;entryPerimeter=0;" edge="1" parent="1" target="kdUmxQenp2QyYtP7Kdyd-77">
          <mxGeometry relative="1" as="geometry">
            <mxPoint x="1080" y="490" as="targetPoint" />
            <mxPoint x="970" y="450" as="sourcePoint" />
            <Array as="points">
              <mxPoint x="1080" y="450" />
            </Array>
          </mxGeometry>
        </mxCell>
        <mxCell id="kdUmxQenp2QyYtP7Kdyd-82" value="" style="edgeStyle=orthogonalEdgeStyle;rounded=0;orthogonalLoop=1;jettySize=auto;html=1;" edge="1" parent="1" source="kdUmxQenp2QyYtP7Kdyd-77" target="kdUmxQenp2QyYtP7Kdyd-81">
          <mxGeometry relative="1" as="geometry" />
        </mxCell>
        <mxCell id="kdUmxQenp2QyYtP7Kdyd-84" value="" style="edgeStyle=orthogonalEdgeStyle;rounded=0;orthogonalLoop=1;jettySize=auto;html=1;entryX=0.478;entryY=0;entryDx=0;entryDy=0;entryPerimeter=0;" edge="1" parent="1" source="kdUmxQenp2QyYtP7Kdyd-77" target="kdUmxQenp2QyYtP7Kdyd-87">
          <mxGeometry relative="1" as="geometry">
            <mxPoint x="940" y="620" as="targetPoint" />
            <Array as="points">
              <mxPoint x="1085" y="570" />
              <mxPoint x="940" y="570" />
            </Array>
          </mxGeometry>
        </mxCell>
        <mxCell id="kdUmxQenp2QyYtP7Kdyd-86" value="" style="edgeStyle=orthogonalEdgeStyle;rounded=0;orthogonalLoop=1;jettySize=auto;html=1;" edge="1" parent="1" source="kdUmxQenp2QyYtP7Kdyd-77" target="kdUmxQenp2QyYtP7Kdyd-85">
          <mxGeometry relative="1" as="geometry">
            <Array as="points">
              <mxPoint x="1085" y="570" />
              <mxPoint x="1235" y="570" />
            </Array>
          </mxGeometry>
        </mxCell>
        <mxCell id="kdUmxQenp2QyYtP7Kdyd-77" value="&quot;Properties of Quadrilaterals&quot;&amp;nbsp;&lt;br&gt;Test Details" style="rounded=0;whiteSpace=wrap;html=1;strokeColor=#6c8ebf;fillColor=#FFFFFF;" vertex="1" parent="1">
          <mxGeometry x="1020" y="493" width="130" height="50" as="geometry" />
        </mxCell>
        <mxCell id="kdUmxQenp2QyYtP7Kdyd-80" value="Settings" style="rounded=0;whiteSpace=wrap;html=1;fillColor=#f5f5f5;strokeColor=#666666;fontColor=#333333;" vertex="1" parent="1">
          <mxGeometry x="540" y="400" width="110" height="40" as="geometry" />
        </mxCell>
        <mxCell id="kdUmxQenp2QyYtP7Kdyd-81" value="Buy now (log in)" style="rounded=0;whiteSpace=wrap;html=1;strokeColor=#6c8ebf;fillColor=#FFFFFF;" vertex="1" parent="1">
          <mxGeometry x="1020" y="623" width="130" height="37" as="geometry" />
        </mxCell>
        <mxCell id="kdUmxQenp2QyYtP7Kdyd-85" value="Reviews &quot;See All&quot;" style="rounded=0;whiteSpace=wrap;html=1;strokeColor=#6c8ebf;fillColor=#FFFFFF;" vertex="1" parent="1">
          <mxGeometry x="1170" y="623" width="130" height="37" as="geometry" />
        </mxCell>
        <mxCell id="kdUmxQenp2QyYtP7Kdyd-87" value="Add to cart (log in)" style="rounded=0;whiteSpace=wrap;html=1;strokeColor=#6c8ebf;fillColor=#FFFFFF;" vertex="1" parent="1">
          <mxGeometry x="878" y="623" width="130" height="37" as="geometry" />
        </mxCell>
        <mxCell id="kdUmxQenp2QyYtP7Kdyd-88" value="Add to my tests (Log in)&amp;nbsp;" style="rounded=0;whiteSpace=wrap;html=1;strokeColor=#82b366;fillColor=#FFFFFF;" vertex="1" parent="1">
          <mxGeometry x="462.5" y="620" width="107.5" height="40" as="geometry" />
        </mxCell>
        <mxCell id="kdUmxQenp2QyYtP7Kdyd-93" value="Wishlist Page(Empty)" style="rounded=0;whiteSpace=wrap;html=1;" vertex="1" parent="1">
          <mxGeometry x="315" y="490" width="100" height="40" as="geometry" />
        </mxCell>
        <mxCell id="kdUmxQenp2QyYtP7Kdyd-96" value="" style="endArrow=classic;startArrow=classic;html=1;shadow=0;exitX=0.547;exitY=0.001;exitDx=0;exitDy=0;exitPerimeter=0;" edge="1" parent="1" source="kdUmxQenp2QyYtP7Kdyd-93">
          <mxGeometry width="50" height="50" relative="1" as="geometry">
            <mxPoint x="320" y="400" as="sourcePoint" />
            <mxPoint x="370" y="350" as="targetPoint" />
          </mxGeometry>
        </mxCell>
        <mxCell id="kdUmxQenp2QyYtP7Kdyd-100" value="" style="edgeStyle=orthogonalEdgeStyle;rounded=0;orthogonalLoop=1;jettySize=auto;html=1;shadow=0;entryX=0.5;entryY=0;entryDx=0;entryDy=0;" edge="1" parent="1" source="kdUmxQenp2QyYtP7Kdyd-99" target="kdUmxQenp2QyYtP7Kdyd-4">
          <mxGeometry relative="1" as="geometry" />
        </mxCell>
        <mxCell id="kdUmxQenp2QyYtP7Kdyd-99" value="Continue as guest" style="rounded=0;whiteSpace=wrap;html=1;" vertex="1" parent="1">
          <mxGeometry x="365" y="20" width="120" height="60" as="geometry" />
        </mxCell>
        <mxCell id="kxbbevjZoV_u6TfhAlHw-1" value="14" style="text;html=1;align=center;verticalAlign=middle;resizable=0;points=[];autosize=1;strokeColor=#b85450;fillColor=#f8cecc;" vertex="1" parent="1">
          <mxGeometry x="190" y="290" width="30" height="20" as="geometry" />
        </mxCell>
        <mxCell id="kxbbevjZoV_u6TfhAlHw-2" value="15" style="text;html=1;align=center;verticalAlign=middle;resizable=0;points=[];autosize=1;strokeColor=#b85450;fillColor=#f8cecc;" vertex="1" parent="1">
          <mxGeometry x="315" y="290" width="30" height="20" as="geometry" />
        </mxCell>
        <mxCell id="uFjv52dQ62Q8SC3ocIX9-2" value="Launch Test (Log in)" style="rounded=0;whiteSpace=wrap;html=1;strokeColor=#82b366;fillColor=#FFFFFF;" vertex="1" parent="1">
          <mxGeometry x="315" y="621.5" width="107.5" height="40" as="geometry" />
        </mxCell>
        <mxCell id="uFjv52dQ62Q8SC3ocIX9-3" value="Reviews &quot;See All&quot; (Reviews Page)" style="rounded=0;whiteSpace=wrap;html=1;strokeColor=#82b366;fillColor=#FFFFFF;" vertex="1" parent="1">
          <mxGeometry x="641.25" y="620" width="107.5" height="40" as="geometry" />
        </mxCell>
        <mxCell id="uFjv52dQ62Q8SC3ocIX9-5" value="16" style="text;html=1;align=center;verticalAlign=middle;resizable=0;points=[];autosize=1;strokeColor=#b85450;fillColor=#f8cecc;" vertex="1" parent="1">
          <mxGeometry x="455" y="290" width="30" height="20" as="geometry" />
        </mxCell>
        <mxCell id="uFjv52dQ62Q8SC3ocIX9-6" value="17" style="text;html=1;align=center;verticalAlign=middle;resizable=0;points=[];autosize=1;strokeColor=#b85450;fillColor=#f8cecc;" vertex="1" parent="1">
          <mxGeometry x="470" y="480" width="30" height="20" as="geometry" />
        </mxCell>
        <mxCell id="uFjv52dQ62Q8SC3ocIX9-7" value="18" style="text;html=1;align=center;verticalAlign=middle;resizable=0;points=[];autosize=1;strokeColor=#b85450;fillColor=#f8cecc;" vertex="1" parent="1">
          <mxGeometry x="320" y="600" width="30" height="20" as="geometry" />
        </mxCell>
        <mxCell id="uFjv52dQ62Q8SC3ocIX9-8" value="19" style="text;html=1;align=center;verticalAlign=middle;resizable=0;points=[];autosize=1;strokeColor=#b85450;fillColor=#f8cecc;" vertex="1" parent="1">
          <mxGeometry x="470" y="600" width="30" height="20" as="geometry" />
        </mxCell>
        <mxCell id="uFjv52dQ62Q8SC3ocIX9-9" value="20" style="text;html=1;align=center;verticalAlign=middle;resizable=0;points=[];autosize=1;strokeColor=#b85450;fillColor=#f8cecc;" vertex="1" parent="1">
          <mxGeometry x="650" y="600" width="30" height="20" as="geometry" />
        </mxCell>
        <mxCell id="uFjv52dQ62Q8SC3ocIX9-10" value="21" style="text;html=1;align=center;verticalAlign=middle;resizable=0;points=[];autosize=1;strokeColor=#b85450;fillColor=#f8cecc;" vertex="1" parent="1">
          <mxGeometry x="630" y="290" width="30" height="20" as="geometry" />
        </mxCell>
        <mxCell id="uFjv52dQ62Q8SC3ocIX9-11" value="22" style="text;html=1;align=center;verticalAlign=middle;resizable=0;points=[];autosize=1;strokeColor=#b85450;fillColor=#f8cecc;" vertex="1" parent="1">
          <mxGeometry x="780" y="290" width="30" height="20" as="geometry" />
        </mxCell>
        <mxCell id="uFjv52dQ62Q8SC3ocIX9-12" value="23" style="text;html=1;align=center;verticalAlign=middle;resizable=0;points=[];autosize=1;strokeColor=#b85450;fillColor=#f8cecc;" vertex="1" parent="1">
          <mxGeometry x="930" y="290" width="30" height="20" as="geometry" />
        </mxCell>
        <mxCell id="uFjv52dQ62Q8SC3ocIX9-13" value="24" style="text;html=1;align=center;verticalAlign=middle;resizable=0;points=[];autosize=1;strokeColor=#b85450;fillColor=#f8cecc;" vertex="1" parent="1">
          <mxGeometry x="820" y="475" width="30" height="20" as="geometry" />
        </mxCell>
        <mxCell id="uFjv52dQ62Q8SC3ocIX9-14" value="25" style="text;html=1;align=center;verticalAlign=middle;resizable=0;points=[];autosize=1;strokeColor=#b85450;fillColor=#f8cecc;" vertex="1" parent="1">
          <mxGeometry x="1030" y="473" width="30" height="20" as="geometry" />
        </mxCell>
        <mxCell id="uFjv52dQ62Q8SC3ocIX9-15" value="26" style="text;html=1;align=center;verticalAlign=middle;resizable=0;points=[];autosize=1;strokeColor=#b85450;fillColor=#f8cecc;" vertex="1" parent="1">
          <mxGeometry x="900" y="603" width="30" height="20" as="geometry" />
        </mxCell>
        <mxCell id="uFjv52dQ62Q8SC3ocIX9-16" value="27" style="text;html=1;align=center;verticalAlign=middle;resizable=0;points=[];autosize=1;strokeColor=#b85450;fillColor=#f8cecc;" vertex="1" parent="1">
          <mxGeometry x="1030" y="601.5" width="30" height="20" as="geometry" />
        </mxCell>
        <mxCell id="uFjv52dQ62Q8SC3ocIX9-17" value="28" style="text;html=1;align=center;verticalAlign=middle;resizable=0;points=[];autosize=1;strokeColor=#b85450;fillColor=#f8cecc;" vertex="1" parent="1">
          <mxGeometry x="1180" y="602" width="30" height="20" as="geometry" />
        </mxCell>
      </root>
    </mxGraphModel>
  </diagram>
  <diagram id="a1N47Jkwlm5fBkrzhHnl" name="New User Flow">
    <mxGraphModel dx="1673" dy="1996" grid="1" gridSize="10" guides="1" tooltips="1" connect="1" arrows="1" fold="1" page="1" pageScale="1" pageWidth="850" pageHeight="1100" math="0" shadow="0">
      <root>
        <mxCell id="F6veN6H8wYKRKQi7pAN9-0" />
        <mxCell id="F6veN6H8wYKRKQi7pAN9-1" parent="F6veN6H8wYKRKQi7pAN9-0" />
        <mxCell id="7ks1ukAzPwZaSVIIpOcn-0" style="edgeStyle=orthogonalEdgeStyle;rounded=0;orthogonalLoop=1;jettySize=auto;html=1;entryX=0.5;entryY=0;entryDx=0;entryDy=0;" edge="1" parent="F6veN6H8wYKRKQi7pAN9-1" source="7ks1ukAzPwZaSVIIpOcn-1" target="7ks1ukAzPwZaSVIIpOcn-69">
          <mxGeometry relative="1" as="geometry">
            <mxPoint x="425" y="10" as="targetPoint" />
          </mxGeometry>
        </mxCell>
        <mxCell id="7ks1ukAzPwZaSVIIpOcn-1" value="Grade page" style="rounded=0;whiteSpace=wrap;html=1;fillColor=#ffe6cc;strokeColor=#d79b00;" vertex="1" parent="F6veN6H8wYKRKQi7pAN9-1">
          <mxGeometry x="365" y="-110" width="120" height="60" as="geometry" />
        </mxCell>
        <mxCell id="7ks1ukAzPwZaSVIIpOcn-2" value="&lt;font style=&quot;font-size: 20px&quot;&gt;&lt;b&gt;&lt;u&gt;NEW USER FLOW&lt;/u&gt;&lt;/b&gt;&lt;/font&gt;" style="text;html=1;align=center;verticalAlign=middle;resizable=0;points=[];autosize=1;strokeColor=none;" vertex="1" parent="F6veN6H8wYKRKQi7pAN9-1">
          <mxGeometry x="330" y="-220" width="190" height="20" as="geometry" />
        </mxCell>
        <mxCell id="7ks1ukAzPwZaSVIIpOcn-3" value="" style="edgeStyle=orthogonalEdgeStyle;rounded=0;orthogonalLoop=1;jettySize=auto;html=1;" edge="1" parent="F6veN6H8wYKRKQi7pAN9-1" source="7ks1ukAzPwZaSVIIpOcn-5" target="7ks1ukAzPwZaSVIIpOcn-7">
          <mxGeometry relative="1" as="geometry">
            <Array as="points">
              <mxPoint x="425" y="430" />
              <mxPoint x="90" y="430" />
            </Array>
          </mxGeometry>
        </mxCell>
        <mxCell id="7ks1ukAzPwZaSVIIpOcn-4" style="edgeStyle=orthogonalEdgeStyle;rounded=0;orthogonalLoop=1;jettySize=auto;html=1;entryX=0.54;entryY=-0.017;entryDx=0;entryDy=0;entryPerimeter=0;" edge="1" parent="F6veN6H8wYKRKQi7pAN9-1" source="7ks1ukAzPwZaSVIIpOcn-5" target="7ks1ukAzPwZaSVIIpOcn-17">
          <mxGeometry relative="1" as="geometry">
            <mxPoint x="780" y="474" as="targetPoint" />
            <Array as="points">
              <mxPoint x="425" y="430" />
              <mxPoint x="672" y="430" />
              <mxPoint x="672" y="463" />
            </Array>
          </mxGeometry>
        </mxCell>
        <mxCell id="5KSKvZaEmGPsY_BmVXbF-4" value="" style="edgeStyle=orthogonalEdgeStyle;rounded=0;orthogonalLoop=1;jettySize=auto;html=1;shadow=0;" edge="1" parent="F6veN6H8wYKRKQi7pAN9-1" source="7ks1ukAzPwZaSVIIpOcn-5">
          <mxGeometry relative="1" as="geometry">
            <mxPoint x="940" y="540" as="targetPoint" />
            <Array as="points">
              <mxPoint x="425" y="430" />
              <mxPoint x="940" y="430" />
            </Array>
          </mxGeometry>
        </mxCell>
        <mxCell id="7ks1ukAzPwZaSVIIpOcn-5" value="Test Catalogue&amp;nbsp;" style="rounded=0;whiteSpace=wrap;html=1;fillColor=#d5e8d4;strokeColor=#82b366;" vertex="1" parent="F6veN6H8wYKRKQi7pAN9-1">
          <mxGeometry x="365" y="304" width="120" height="60" as="geometry" />
        </mxCell>
        <mxCell id="7ks1ukAzPwZaSVIIpOcn-7" value="Hamburger menu" style="rounded=0;whiteSpace=wrap;html=1;strokeColor=#666666;fillColor=#f5f5f5;fontColor=#333333;" vertex="1" parent="F6veN6H8wYKRKQi7pAN9-1">
          <mxGeometry x="30" y="464" width="120" height="40" as="geometry" />
        </mxCell>
        <mxCell id="7ks1ukAzPwZaSVIIpOcn-8" style="edgeStyle=orthogonalEdgeStyle;rounded=0;orthogonalLoop=1;jettySize=auto;html=1;" edge="1" parent="F6veN6H8wYKRKQi7pAN9-1">
          <mxGeometry relative="1" as="geometry">
            <mxPoint x="1138" y="570" as="targetPoint" />
            <mxPoint x="690" y="540" as="sourcePoint" />
            <Array as="points">
              <mxPoint x="1138" y="540" />
            </Array>
          </mxGeometry>
        </mxCell>
        <mxCell id="7ks1ukAzPwZaSVIIpOcn-9" style="edgeStyle=orthogonalEdgeStyle;rounded=0;orthogonalLoop=1;jettySize=auto;html=1;" edge="1" parent="F6veN6H8wYKRKQi7pAN9-1">
          <mxGeometry relative="1" as="geometry">
            <mxPoint x="230" y="464" as="targetPoint" />
            <mxPoint x="230" y="430" as="sourcePoint" />
            <Array as="points">
              <mxPoint x="230" y="434" />
              <mxPoint x="230" y="444" />
            </Array>
          </mxGeometry>
        </mxCell>
        <mxCell id="7ks1ukAzPwZaSVIIpOcn-10" value="Wishlist 2 tests" style="rounded=0;whiteSpace=wrap;html=1;" vertex="1" parent="F6veN6H8wYKRKQi7pAN9-1">
          <mxGeometry x="180" y="464" width="90" height="40" as="geometry" />
        </mxCell>
        <mxCell id="7ks1ukAzPwZaSVIIpOcn-12" value="Cart page (Empty)" style="rounded=0;whiteSpace=wrap;html=1;" vertex="1" parent="F6veN6H8wYKRKQi7pAN9-1">
          <mxGeometry x="310" y="464" width="100" height="40" as="geometry" />
        </mxCell>
        <mxCell id="7ks1ukAzPwZaSVIIpOcn-13" value="" style="edgeStyle=orthogonalEdgeStyle;rounded=0;orthogonalLoop=1;jettySize=auto;html=1;exitX=0.5;exitY=1;exitDx=0;exitDy=0;" edge="1" parent="F6veN6H8wYKRKQi7pAN9-1" source="7ks1ukAzPwZaSVIIpOcn-14">
          <mxGeometry relative="1" as="geometry">
            <mxPoint x="1140" y="605" as="sourcePoint" />
            <mxPoint x="1040" y="700" as="targetPoint" />
            <Array as="points">
              <mxPoint x="1140" y="660" />
              <mxPoint x="1040" y="660" />
            </Array>
          </mxGeometry>
        </mxCell>
        <mxCell id="7ks1ukAzPwZaSVIIpOcn-14" value="Subject Catalogue" style="rounded=0;whiteSpace=wrap;html=1;strokeColor=#6c8ebf;fillColor=#dae8fc;" vertex="1" parent="F6veN6H8wYKRKQi7pAN9-1">
          <mxGeometry x="1090" y="570" width="100" height="40" as="geometry" />
        </mxCell>
        <mxCell id="7ks1ukAzPwZaSVIIpOcn-15" style="edgeStyle=orthogonalEdgeStyle;rounded=0;orthogonalLoop=1;jettySize=auto;html=1;" edge="1" parent="F6veN6H8wYKRKQi7pAN9-1">
          <mxGeometry relative="1" as="geometry">
            <mxPoint x="360" y="464" as="targetPoint" />
            <mxPoint x="360" y="430" as="sourcePoint" />
            <Array as="points">
              <mxPoint x="360" y="444" />
              <mxPoint x="360" y="444" />
            </Array>
          </mxGeometry>
        </mxCell>
        <mxCell id="7ks1ukAzPwZaSVIIpOcn-16" style="edgeStyle=orthogonalEdgeStyle;rounded=0;orthogonalLoop=1;jettySize=auto;html=1;" edge="1" parent="F6veN6H8wYKRKQi7pAN9-1">
          <mxGeometry relative="1" as="geometry">
            <mxPoint x="690.0500000000002" y="580" as="targetPoint" />
            <mxPoint x="690" y="540" as="sourcePoint" />
            <Array as="points">
              <mxPoint x="690.05" y="570" />
              <mxPoint x="690.05" y="570" />
            </Array>
          </mxGeometry>
        </mxCell>
        <mxCell id="7ks1ukAzPwZaSVIIpOcn-17" value="My Tests (Empty)" style="rounded=0;whiteSpace=wrap;html=1;" vertex="1" parent="F6veN6H8wYKRKQi7pAN9-1">
          <mxGeometry x="617.5" y="464" width="100" height="40" as="geometry" />
        </mxCell>
        <mxCell id="7ks1ukAzPwZaSVIIpOcn-18" style="edgeStyle=orthogonalEdgeStyle;rounded=0;orthogonalLoop=1;jettySize=auto;html=1;exitX=0.527;exitY=1.002;exitDx=0;exitDy=0;exitPerimeter=0;entryX=0.524;entryY=0;entryDx=0;entryDy=0;entryPerimeter=0;" edge="1" parent="F6veN6H8wYKRKQi7pAN9-1" source="7ks1ukAzPwZaSVIIpOcn-19" target="7ks1ukAzPwZaSVIIpOcn-54">
          <mxGeometry relative="1" as="geometry">
            <mxPoint x="700" y="679.67" as="targetPoint" />
            <Array as="points">
              <mxPoint x="687" y="630" />
              <mxPoint x="686" y="630" />
            </Array>
            <mxPoint x="699.1225000000002" y="600.0000000000003" as="sourcePoint" />
          </mxGeometry>
        </mxCell>
        <mxCell id="7ks1ukAzPwZaSVIIpOcn-19" value="Test Details (paid or free)" style="rounded=0;whiteSpace=wrap;html=1;strokeColor=#82b366;fillColor=#FFFFFF;" vertex="1" parent="F6veN6H8wYKRKQi7pAN9-1">
          <mxGeometry x="630" y="579.25" width="107.5" height="40" as="geometry" />
        </mxCell>
        <mxCell id="7ks1ukAzPwZaSVIIpOcn-36" style="edgeStyle=orthogonalEdgeStyle;rounded=0;orthogonalLoop=1;jettySize=auto;html=1;" edge="1" parent="F6veN6H8wYKRKQi7pAN9-1">
          <mxGeometry relative="1" as="geometry">
            <mxPoint x="515.83" y="464" as="targetPoint" />
            <mxPoint x="516" y="430" as="sourcePoint" />
            <Array as="points">
              <mxPoint x="515.7800000000001" y="444" />
              <mxPoint x="515.7800000000001" y="444" />
            </Array>
          </mxGeometry>
        </mxCell>
        <mxCell id="7ks1ukAzPwZaSVIIpOcn-37" value="Search Page" style="rounded=0;whiteSpace=wrap;html=1;" vertex="1" parent="F6veN6H8wYKRKQi7pAN9-1">
          <mxGeometry x="467.5" y="464" width="107.5" height="40" as="geometry" />
        </mxCell>
        <mxCell id="7ks1ukAzPwZaSVIIpOcn-38" value="1" style="text;html=1;align=center;verticalAlign=middle;resizable=0;points=[];autosize=1;strokeColor=#b85450;fillColor=#f8cecc;" vertex="1" parent="F6veN6H8wYKRKQi7pAN9-1">
          <mxGeometry x="370" y="-130" width="20" height="20" as="geometry" />
        </mxCell>
        <mxCell id="7ks1ukAzPwZaSVIIpOcn-39" value="2" style="text;html=1;align=center;verticalAlign=middle;resizable=0;points=[];autosize=1;strokeColor=#b85450;fillColor=#f8cecc;" vertex="1" parent="F6veN6H8wYKRKQi7pAN9-1">
          <mxGeometry x="370" width="20" height="20" as="geometry" />
        </mxCell>
        <mxCell id="7ks1ukAzPwZaSVIIpOcn-40" value="5" style="text;html=1;align=center;verticalAlign=middle;resizable=0;points=[];autosize=1;strokeColor=#b85450;fillColor=#f8cecc;" vertex="1" parent="F6veN6H8wYKRKQi7pAN9-1">
          <mxGeometry x="380" y="284" width="20" height="20" as="geometry" />
        </mxCell>
        <mxCell id="7ks1ukAzPwZaSVIIpOcn-41" value="6" style="text;html=1;align=center;verticalAlign=middle;resizable=0;points=[];autosize=1;strokeColor=#b85450;fillColor=#f8cecc;" vertex="1" parent="F6veN6H8wYKRKQi7pAN9-1">
          <mxGeometry x="50" y="444" width="20" height="20" as="geometry" />
        </mxCell>
        <mxCell id="7ks1ukAzPwZaSVIIpOcn-51" value="" style="edgeStyle=orthogonalEdgeStyle;rounded=0;orthogonalLoop=1;jettySize=auto;html=1;" edge="1" parent="F6veN6H8wYKRKQi7pAN9-1" target="7ks1ukAzPwZaSVIIpOcn-65">
          <mxGeometry relative="1" as="geometry">
            <mxPoint x="948.7586206896553" y="880" as="sourcePoint" />
            <Array as="points">
              <mxPoint x="949" y="945" />
              <mxPoint x="949" y="945" />
            </Array>
          </mxGeometry>
        </mxCell>
        <mxCell id="7ks1ukAzPwZaSVIIpOcn-52" value="" style="edgeStyle=orthogonalEdgeStyle;rounded=0;orthogonalLoop=1;jettySize=auto;html=1;shadow=0;" edge="1" parent="F6veN6H8wYKRKQi7pAN9-1">
          <mxGeometry relative="1" as="geometry">
            <mxPoint x="805" y="1005" as="targetPoint" />
            <Array as="points">
              <mxPoint x="949" y="925" />
              <mxPoint x="805" y="925" />
            </Array>
            <mxPoint x="948.7586206896553" y="880" as="sourcePoint" />
          </mxGeometry>
        </mxCell>
        <mxCell id="7ks1ukAzPwZaSVIIpOcn-53" value="" style="edgeStyle=orthogonalEdgeStyle;rounded=0;orthogonalLoop=1;jettySize=auto;html=1;shadow=0;startArrow=none;" edge="1" parent="F6veN6H8wYKRKQi7pAN9-1">
          <mxGeometry relative="1" as="geometry">
            <Array as="points">
              <mxPoint x="1134" y="925" />
            </Array>
            <mxPoint x="949" y="925" as="sourcePoint" />
            <mxPoint x="1134" y="1005" as="targetPoint" />
          </mxGeometry>
        </mxCell>
        <mxCell id="5KSKvZaEmGPsY_BmVXbF-28" value="" style="edgeStyle=orthogonalEdgeStyle;rounded=0;orthogonalLoop=1;jettySize=auto;html=1;shadow=0;" edge="1" parent="F6veN6H8wYKRKQi7pAN9-1">
          <mxGeometry relative="1" as="geometry">
            <mxPoint x="683.998064516129" y="739" as="sourcePoint" />
            <mxPoint x="949.24" y="920" as="targetPoint" />
            <Array as="points">
              <mxPoint x="684" y="814" />
              <mxPoint x="949" y="814" />
              <mxPoint x="949" y="834" />
              <mxPoint x="949" y="834" />
            </Array>
          </mxGeometry>
        </mxCell>
        <mxCell id="7ks1ukAzPwZaSVIIpOcn-54" value="&quot;Properties of Quadrilaterals&quot;&amp;nbsp;&lt;br&gt;Test Details (Unpaid)" style="rounded=0;whiteSpace=wrap;html=1;strokeColor=#82b366;fillColor=#FFFFFF;" vertex="1" parent="F6veN6H8wYKRKQi7pAN9-1">
          <mxGeometry x="630" y="687" width="107.5" height="73" as="geometry" />
        </mxCell>
        <mxCell id="7ks1ukAzPwZaSVIIpOcn-55" value="Filter" style="rounded=0;whiteSpace=wrap;html=1;strokeColor=#6c8ebf;fillColor=#FFFFFF;" vertex="1" parent="F6veN6H8wYKRKQi7pAN9-1">
          <mxGeometry x="970" y="698" width="130" height="35" as="geometry" />
        </mxCell>
        <mxCell id="7ks1ukAzPwZaSVIIpOcn-56" style="edgeStyle=orthogonalEdgeStyle;rounded=0;orthogonalLoop=1;jettySize=auto;html=1;entryX=0.542;entryY=-0.005;entryDx=0;entryDy=0;entryPerimeter=0;" edge="1" parent="F6veN6H8wYKRKQi7pAN9-1" target="7ks1ukAzPwZaSVIIpOcn-60">
          <mxGeometry relative="1" as="geometry">
            <mxPoint x="1240" y="698" as="targetPoint" />
            <mxPoint x="1140" y="660" as="sourcePoint" />
            <Array as="points">
              <mxPoint x="1250" y="660" />
            </Array>
          </mxGeometry>
        </mxCell>
        <mxCell id="5KSKvZaEmGPsY_BmVXbF-30" value="" style="edgeStyle=orthogonalEdgeStyle;rounded=0;orthogonalLoop=1;jettySize=auto;html=1;shadow=0;" edge="1" parent="F6veN6H8wYKRKQi7pAN9-1">
          <mxGeometry relative="1" as="geometry">
            <mxPoint x="1253.9999999999998" y="739" as="sourcePoint" />
            <mxPoint x="949" y="920" as="targetPoint" />
            <Array as="points">
              <mxPoint x="1254" y="814" />
              <mxPoint x="949" y="814" />
              <mxPoint x="949" y="834" />
            </Array>
          </mxGeometry>
        </mxCell>
        <mxCell id="7ks1ukAzPwZaSVIIpOcn-60" value="&quot;Properties of Quadrilaterals&quot;&amp;nbsp;&lt;br&gt;Test Details (Unpaid)" style="rounded=0;whiteSpace=wrap;html=1;strokeColor=#9673a6;fillColor=#e1d5e7;" vertex="1" parent="F6veN6H8wYKRKQi7pAN9-1">
          <mxGeometry x="1190" y="698" width="110" height="73" as="geometry" />
        </mxCell>
        <mxCell id="7ks1ukAzPwZaSVIIpOcn-89" value="" style="edgeStyle=orthogonalEdgeStyle;rounded=0;orthogonalLoop=1;jettySize=auto;html=1;shadow=0;" edge="1" parent="F6veN6H8wYKRKQi7pAN9-1" source="7ks1ukAzPwZaSVIIpOcn-69" target="7ks1ukAzPwZaSVIIpOcn-88">
          <mxGeometry relative="1" as="geometry" />
        </mxCell>
        <mxCell id="7ks1ukAzPwZaSVIIpOcn-91" value="" style="edgeStyle=orthogonalEdgeStyle;rounded=0;orthogonalLoop=1;jettySize=auto;html=1;shadow=0;" edge="1" parent="F6veN6H8wYKRKQi7pAN9-1" source="7ks1ukAzPwZaSVIIpOcn-69" target="7ks1ukAzPwZaSVIIpOcn-90">
          <mxGeometry relative="1" as="geometry" />
        </mxCell>
        <mxCell id="7ks1ukAzPwZaSVIIpOcn-69" value="Sign up page" style="rounded=0;whiteSpace=wrap;html=1;fillColor=#fff2cc;strokeColor=#d6b656;" vertex="1" parent="F6veN6H8wYKRKQi7pAN9-1">
          <mxGeometry x="365" y="20" width="120" height="60" as="geometry" />
        </mxCell>
        <mxCell id="7ks1ukAzPwZaSVIIpOcn-71" value="8" style="text;html=1;align=center;verticalAlign=middle;resizable=0;points=[];autosize=1;strokeColor=#b85450;fillColor=#f8cecc;" vertex="1" parent="F6veN6H8wYKRKQi7pAN9-1">
          <mxGeometry x="320" y="444" width="20" height="20" as="geometry" />
        </mxCell>
        <mxCell id="7ks1ukAzPwZaSVIIpOcn-72" value="Buy Now" style="rounded=0;whiteSpace=wrap;html=1;strokeColor=#9673a6;fillColor=#FFFFFF;" vertex="1" parent="F6veN6H8wYKRKQi7pAN9-1">
          <mxGeometry x="750" y="1005" width="107.5" height="40" as="geometry" />
        </mxCell>
        <mxCell id="7ks1ukAzPwZaSVIIpOcn-73" value="Reviews &quot;See All&quot;" style="rounded=0;whiteSpace=wrap;html=1;strokeColor=#9673a6;fillColor=#FFFFFF;" vertex="1" parent="F6veN6H8wYKRKQi7pAN9-1">
          <mxGeometry x="1075" y="1005" width="107.5" height="40" as="geometry" />
        </mxCell>
        <mxCell id="7ks1ukAzPwZaSVIIpOcn-74" value="10" style="text;html=1;align=center;verticalAlign=middle;resizable=0;points=[];autosize=1;strokeColor=#b85450;fillColor=#f8cecc;" vertex="1" parent="F6veN6H8wYKRKQi7pAN9-1">
          <mxGeometry x="635" y="559.25" width="30" height="20" as="geometry" />
        </mxCell>
        <mxCell id="7ks1ukAzPwZaSVIIpOcn-75" value="11" style="text;html=1;align=center;verticalAlign=middle;resizable=0;points=[];autosize=1;strokeColor=#b85450;fillColor=#f8cecc;" vertex="1" parent="F6veN6H8wYKRKQi7pAN9-1">
          <mxGeometry x="640" y="667" width="30" height="20" as="geometry" />
        </mxCell>
        <mxCell id="7ks1ukAzPwZaSVIIpOcn-76" value="12" style="text;html=1;align=center;verticalAlign=middle;resizable=0;points=[];autosize=1;strokeColor=#b85450;fillColor=#f8cecc;" vertex="1" parent="F6veN6H8wYKRKQi7pAN9-1">
          <mxGeometry x="755" y="984.25" width="30" height="20" as="geometry" />
        </mxCell>
        <mxCell id="7ks1ukAzPwZaSVIIpOcn-77" value="19" style="text;html=1;align=center;verticalAlign=middle;resizable=0;points=[];autosize=1;strokeColor=#b85450;fillColor=#f8cecc;" vertex="1" parent="F6veN6H8wYKRKQi7pAN9-1">
          <mxGeometry x="915" y="1014.25" width="30" height="20" as="geometry" />
        </mxCell>
        <mxCell id="7ks1ukAzPwZaSVIIpOcn-81" value="10" style="text;html=1;align=center;verticalAlign=middle;resizable=0;points=[];autosize=1;strokeColor=#b85450;fillColor=#f8cecc;" vertex="1" parent="F6veN6H8wYKRKQi7pAN9-1">
          <mxGeometry x="1100" y="550" width="30" height="20" as="geometry" />
        </mxCell>
        <mxCell id="7ks1ukAzPwZaSVIIpOcn-82" value="11" style="text;html=1;align=center;verticalAlign=middle;resizable=0;points=[];autosize=1;strokeColor=#b85450;fillColor=#f8cecc;" vertex="1" parent="F6veN6H8wYKRKQi7pAN9-1">
          <mxGeometry x="985" y="678" width="30" height="20" as="geometry" />
        </mxCell>
        <mxCell id="7ks1ukAzPwZaSVIIpOcn-83" value="12" style="text;html=1;align=center;verticalAlign=middle;resizable=0;points=[];autosize=1;strokeColor=#b85450;fillColor=#f8cecc;" vertex="1" parent="F6veN6H8wYKRKQi7pAN9-1">
          <mxGeometry x="1200" y="678" width="30" height="20" as="geometry" />
        </mxCell>
        <mxCell id="7ks1ukAzPwZaSVIIpOcn-88" value="Terms and Conditions" style="rounded=0;whiteSpace=wrap;html=1;strokeColor=#d6b656;fillColor=#FFFFFF;" vertex="1" parent="F6veN6H8wYKRKQi7pAN9-1">
          <mxGeometry x="270" y="150" width="120" height="60" as="geometry" />
        </mxCell>
        <mxCell id="7ks1ukAzPwZaSVIIpOcn-94" value="" style="edgeStyle=orthogonalEdgeStyle;rounded=0;orthogonalLoop=1;jettySize=auto;html=1;shadow=0;" edge="1" parent="F6veN6H8wYKRKQi7pAN9-1" source="7ks1ukAzPwZaSVIIpOcn-90" target="7ks1ukAzPwZaSVIIpOcn-5">
          <mxGeometry relative="1" as="geometry" />
        </mxCell>
        <mxCell id="7ks1ukAzPwZaSVIIpOcn-90" value="Sign up process" style="rounded=0;whiteSpace=wrap;html=1;strokeColor=#d6b656;fillColor=#FFFFFF;" vertex="1" parent="F6veN6H8wYKRKQi7pAN9-1">
          <mxGeometry x="456.25" y="150" width="120" height="60" as="geometry" />
        </mxCell>
        <mxCell id="7ks1ukAzPwZaSVIIpOcn-92" value="3" style="text;html=1;align=center;verticalAlign=middle;resizable=0;points=[];autosize=1;strokeColor=#b85450;fillColor=#f8cecc;" vertex="1" parent="F6veN6H8wYKRKQi7pAN9-1">
          <mxGeometry x="280" y="130" width="20" height="20" as="geometry" />
        </mxCell>
        <mxCell id="7ks1ukAzPwZaSVIIpOcn-93" value="4" style="text;html=1;align=center;verticalAlign=middle;resizable=0;points=[];autosize=1;strokeColor=#b85450;fillColor=#f8cecc;" vertex="1" parent="F6veN6H8wYKRKQi7pAN9-1">
          <mxGeometry x="475" y="130" width="20" height="20" as="geometry" />
        </mxCell>
        <mxCell id="d7tROnm0wmiSQFQ8Ft74-1" value="7" style="text;html=1;align=center;verticalAlign=middle;resizable=0;points=[];autosize=1;strokeColor=#b85450;fillColor=#f8cecc;" vertex="1" parent="F6veN6H8wYKRKQi7pAN9-1">
          <mxGeometry x="190" y="444" width="20" height="20" as="geometry" />
        </mxCell>
        <mxCell id="5KSKvZaEmGPsY_BmVXbF-0" value="" style="endArrow=classic;startArrow=classic;html=1;shadow=0;" edge="1" parent="F6veN6H8wYKRKQi7pAN9-1">
          <mxGeometry width="50" height="50" relative="1" as="geometry">
            <mxPoint x="360" y="630" as="sourcePoint" />
            <mxPoint x="359.96" y="504" as="targetPoint" />
          </mxGeometry>
        </mxCell>
        <mxCell id="5KSKvZaEmGPsY_BmVXbF-1" value="Wishlist Page" style="rounded=0;whiteSpace=wrap;html=1;" vertex="1" parent="F6veN6H8wYKRKQi7pAN9-1">
          <mxGeometry x="310" y="629" width="100" height="40" as="geometry" />
        </mxCell>
        <mxCell id="5KSKvZaEmGPsY_BmVXbF-2" value="9" style="text;html=1;align=center;verticalAlign=middle;resizable=0;points=[];autosize=1;strokeColor=#b85450;fillColor=#f8cecc;" vertex="1" parent="F6veN6H8wYKRKQi7pAN9-1">
          <mxGeometry x="320" y="608" width="20" height="20" as="geometry" />
        </mxCell>
        <mxCell id="5KSKvZaEmGPsY_BmVXbF-9" value="" style="edgeStyle=orthogonalEdgeStyle;rounded=0;orthogonalLoop=1;jettySize=auto;html=1;shadow=0;" edge="1" parent="F6veN6H8wYKRKQi7pAN9-1" source="7ks1ukAzPwZaSVIIpOcn-65" target="5KSKvZaEmGPsY_BmVXbF-8">
          <mxGeometry relative="1" as="geometry" />
        </mxCell>
        <mxCell id="7ks1ukAzPwZaSVIIpOcn-65" value="Add to cart&amp;nbsp;" style="rounded=0;whiteSpace=wrap;html=1;strokeColor=#9673a6;fillColor=#FFFFFF;" vertex="1" parent="F6veN6H8wYKRKQi7pAN9-1">
          <mxGeometry x="907.5" y="1004.25" width="107.5" height="40" as="geometry" />
        </mxCell>
        <mxCell id="5KSKvZaEmGPsY_BmVXbF-7" value="13" style="text;html=1;align=center;verticalAlign=middle;resizable=0;points=[];autosize=1;strokeColor=#b85450;fillColor=#f8cecc;" vertex="1" parent="F6veN6H8wYKRKQi7pAN9-1">
          <mxGeometry x="915" y="984.25" width="30" height="20" as="geometry" />
        </mxCell>
        <mxCell id="5KSKvZaEmGPsY_BmVXbF-11" value="" style="edgeStyle=orthogonalEdgeStyle;rounded=0;orthogonalLoop=1;jettySize=auto;html=1;shadow=0;" edge="1" parent="F6veN6H8wYKRKQi7pAN9-1" source="5KSKvZaEmGPsY_BmVXbF-8" target="5KSKvZaEmGPsY_BmVXbF-10">
          <mxGeometry relative="1" as="geometry" />
        </mxCell>
        <mxCell id="5KSKvZaEmGPsY_BmVXbF-13" value="" style="edgeStyle=orthogonalEdgeStyle;rounded=0;orthogonalLoop=1;jettySize=auto;html=1;shadow=0;" edge="1" parent="F6veN6H8wYKRKQi7pAN9-1" source="5KSKvZaEmGPsY_BmVXbF-8" target="5KSKvZaEmGPsY_BmVXbF-12">
          <mxGeometry relative="1" as="geometry" />
        </mxCell>
        <mxCell id="5KSKvZaEmGPsY_BmVXbF-8" value="&lt;font color=&quot;#000000&quot;&gt;Go to cart&lt;/font&gt;" style="rounded=0;whiteSpace=wrap;html=1;" vertex="1" parent="F6veN6H8wYKRKQi7pAN9-1">
          <mxGeometry x="907.5" y="1095" width="107.5" height="40" as="geometry" />
        </mxCell>
        <mxCell id="5KSKvZaEmGPsY_BmVXbF-10" value="Delete overlay - click on exit" style="rounded=0;whiteSpace=wrap;html=1;" vertex="1" parent="F6veN6H8wYKRKQi7pAN9-1">
          <mxGeometry x="800" y="1205" width="107.5" height="40" as="geometry" />
        </mxCell>
        <mxCell id="5KSKvZaEmGPsY_BmVXbF-16" value="" style="edgeStyle=orthogonalEdgeStyle;rounded=0;orthogonalLoop=1;jettySize=auto;html=1;shadow=0;" edge="1" parent="F6veN6H8wYKRKQi7pAN9-1" source="5KSKvZaEmGPsY_BmVXbF-12" target="5KSKvZaEmGPsY_BmVXbF-15">
          <mxGeometry relative="1" as="geometry" />
        </mxCell>
        <mxCell id="5KSKvZaEmGPsY_BmVXbF-12" value="Move to wishlist button" style="rounded=0;whiteSpace=wrap;html=1;" vertex="1" parent="F6veN6H8wYKRKQi7pAN9-1">
          <mxGeometry x="930" y="1205" width="107.5" height="40" as="geometry" />
        </mxCell>
        <mxCell id="5KSKvZaEmGPsY_BmVXbF-22" value="" style="edgeStyle=orthogonalEdgeStyle;rounded=0;orthogonalLoop=1;jettySize=auto;html=1;shadow=0;" edge="1" parent="F6veN6H8wYKRKQi7pAN9-1" source="5KSKvZaEmGPsY_BmVXbF-15" target="5KSKvZaEmGPsY_BmVXbF-21">
          <mxGeometry relative="1" as="geometry" />
        </mxCell>
        <mxCell id="5KSKvZaEmGPsY_BmVXbF-15" value="Proceed button" style="rounded=0;whiteSpace=wrap;html=1;" vertex="1" parent="F6veN6H8wYKRKQi7pAN9-1">
          <mxGeometry x="930" y="1305" width="107.5" height="40" as="geometry" />
        </mxCell>
        <mxCell id="5KSKvZaEmGPsY_BmVXbF-17" value="14" style="text;html=1;align=center;verticalAlign=middle;resizable=0;points=[];autosize=1;strokeColor=#b85450;fillColor=#f8cecc;" vertex="1" parent="F6veN6H8wYKRKQi7pAN9-1">
          <mxGeometry x="915" y="1075" width="30" height="20" as="geometry" />
        </mxCell>
        <mxCell id="5KSKvZaEmGPsY_BmVXbF-18" value="15" style="text;html=1;align=center;verticalAlign=middle;resizable=0;points=[];autosize=1;strokeColor=#b85450;fillColor=#f8cecc;" vertex="1" parent="F6veN6H8wYKRKQi7pAN9-1">
          <mxGeometry x="810" y="1185" width="30" height="20" as="geometry" />
        </mxCell>
        <mxCell id="5KSKvZaEmGPsY_BmVXbF-19" value="16" style="text;html=1;align=center;verticalAlign=middle;resizable=0;points=[];autosize=1;strokeColor=#b85450;fillColor=#f8cecc;" vertex="1" parent="F6veN6H8wYKRKQi7pAN9-1">
          <mxGeometry x="935" y="1185" width="30" height="20" as="geometry" />
        </mxCell>
        <mxCell id="5KSKvZaEmGPsY_BmVXbF-20" value="17" style="text;html=1;align=center;verticalAlign=middle;resizable=0;points=[];autosize=1;strokeColor=#b85450;fillColor=#f8cecc;" vertex="1" parent="F6veN6H8wYKRKQi7pAN9-1">
          <mxGeometry x="934" y="1285" width="30" height="20" as="geometry" />
        </mxCell>
        <mxCell id="5KSKvZaEmGPsY_BmVXbF-25" value="" style="edgeStyle=orthogonalEdgeStyle;rounded=0;orthogonalLoop=1;jettySize=auto;html=1;shadow=0;" edge="1" parent="F6veN6H8wYKRKQi7pAN9-1" source="5KSKvZaEmGPsY_BmVXbF-21" target="5KSKvZaEmGPsY_BmVXbF-24">
          <mxGeometry relative="1" as="geometry" />
        </mxCell>
        <mxCell id="5KSKvZaEmGPsY_BmVXbF-21" value="Pay Button" style="rounded=0;whiteSpace=wrap;html=1;" vertex="1" parent="F6veN6H8wYKRKQi7pAN9-1">
          <mxGeometry x="930" y="1415" width="107.5" height="40" as="geometry" />
        </mxCell>
        <mxCell id="5KSKvZaEmGPsY_BmVXbF-23" value="18" style="text;html=1;align=center;verticalAlign=middle;resizable=0;points=[];autosize=1;strokeColor=#b85450;fillColor=#f8cecc;" vertex="1" parent="F6veN6H8wYKRKQi7pAN9-1">
          <mxGeometry x="933.75" y="1395" width="30" height="20" as="geometry" />
        </mxCell>
        <mxCell id="qVFHNlDJCfKQxARFHMeC-2" value="" style="edgeStyle=orthogonalEdgeStyle;rounded=0;orthogonalLoop=1;jettySize=auto;html=1;shadow=0;" edge="1" parent="F6veN6H8wYKRKQi7pAN9-1" source="5KSKvZaEmGPsY_BmVXbF-24" target="qVFHNlDJCfKQxARFHMeC-1">
          <mxGeometry relative="1" as="geometry">
            <Array as="points">
              <mxPoint x="984" y="1600" />
              <mxPoint x="786" y="1600" />
            </Array>
          </mxGeometry>
        </mxCell>
        <mxCell id="qVFHNlDJCfKQxARFHMeC-6" value="" style="edgeStyle=orthogonalEdgeStyle;rounded=0;orthogonalLoop=1;jettySize=auto;html=1;shadow=0;" edge="1" parent="F6veN6H8wYKRKQi7pAN9-1" source="5KSKvZaEmGPsY_BmVXbF-24" target="qVFHNlDJCfKQxARFHMeC-5">
          <mxGeometry relative="1" as="geometry">
            <Array as="points">
              <mxPoint x="984" y="1600" />
              <mxPoint x="949" y="1600" />
            </Array>
          </mxGeometry>
        </mxCell>
        <mxCell id="qVFHNlDJCfKQxARFHMeC-8" value="" style="edgeStyle=orthogonalEdgeStyle;rounded=0;orthogonalLoop=1;jettySize=auto;html=1;shadow=0;" edge="1" parent="F6veN6H8wYKRKQi7pAN9-1" source="5KSKvZaEmGPsY_BmVXbF-24">
          <mxGeometry relative="1" as="geometry">
            <mxPoint x="1110" y="1650" as="targetPoint" />
            <Array as="points">
              <mxPoint x="984" y="1600" />
              <mxPoint x="1110" y="1600" />
            </Array>
          </mxGeometry>
        </mxCell>
        <mxCell id="5KSKvZaEmGPsY_BmVXbF-24" value="Test Details (Paid)" style="rounded=0;whiteSpace=wrap;html=1;strokeColor=#9673A6;fillColor=#FFFFFF;" vertex="1" parent="F6veN6H8wYKRKQi7pAN9-1">
          <mxGeometry x="930" y="1535" width="107.5" height="40" as="geometry" />
        </mxCell>
        <mxCell id="qVFHNlDJCfKQxARFHMeC-0" value="19" style="text;html=1;align=center;verticalAlign=middle;resizable=0;points=[];autosize=1;strokeColor=#b85450;fillColor=#f8cecc;" vertex="1" parent="F6veN6H8wYKRKQi7pAN9-1">
          <mxGeometry x="935" y="1515" width="30" height="20" as="geometry" />
        </mxCell>
        <mxCell id="qVFHNlDJCfKQxARFHMeC-1" value="Download button" style="rounded=0;whiteSpace=wrap;html=1;strokeColor=#9673a6;fillColor=#FFFFFF;" vertex="1" parent="F6veN6H8wYKRKQi7pAN9-1">
          <mxGeometry x="732.5" y="1650" width="107.5" height="40" as="geometry" />
        </mxCell>
        <mxCell id="qVFHNlDJCfKQxARFHMeC-5" value="Write a review" style="rounded=0;whiteSpace=wrap;html=1;strokeColor=#9673A6;fillColor=#FFFFFF;" vertex="1" parent="F6veN6H8wYKRKQi7pAN9-1">
          <mxGeometry x="895" y="1650" width="107.5" height="40" as="geometry" />
        </mxCell>
        <mxCell id="qVFHNlDJCfKQxARFHMeC-11" value="" style="edgeStyle=orthogonalEdgeStyle;rounded=0;orthogonalLoop=1;jettySize=auto;html=1;shadow=0;" edge="1" parent="F6veN6H8wYKRKQi7pAN9-1" source="qVFHNlDJCfKQxARFHMeC-7" target="qVFHNlDJCfKQxARFHMeC-10">
          <mxGeometry relative="1" as="geometry" />
        </mxCell>
        <mxCell id="qVFHNlDJCfKQxARFHMeC-7" value="Launch Test" style="rounded=0;whiteSpace=wrap;html=1;fillColor=#FFFFFF;strokeColor=#6600CC;" vertex="1" parent="F6veN6H8wYKRKQi7pAN9-1">
          <mxGeometry x="1050" y="1650" width="107.5" height="40" as="geometry" />
        </mxCell>
        <mxCell id="qVFHNlDJCfKQxARFHMeC-10" value="Launch Test" style="rounded=0;whiteSpace=wrap;html=1;fillColor=#FFFFFF;strokeColor=#6600CC;" vertex="1" parent="F6veN6H8wYKRKQi7pAN9-1">
          <mxGeometry x="1050" y="1770" width="107.5" height="40" as="geometry" />
        </mxCell>
      </root>
    </mxGraphModel>
  </diagram>
</mxfile>
